<svg width="158" height="40" viewBox="0 0 158 40" fill="none" xmlns="http://www.w3.org/2000/svg">
<path d="M18.6747 38.2169C8.60241 33.735 4.07229 22 8.53012 11.9277C14.4337 9.32533 21.1566 9.68678 26.6747 12.988C18 18.1446 14.5783 28.9398 18.6747 38.2169Z" fill="url(#paint0_linear)"/>
<path d="M26.6988 39.9036C23.9036 39.9036 21.1566 39.3493 18.6265 38.1686C16.0241 32.265 16.4578 25.5421 19.6867 20.024C24.8434 28.7228 35.6626 32.2168 44.9157 28.0963C41.7349 35.3012 34.6024 39.9036 26.6988 39.9036Z" fill="url(#paint1_linear)"/>
<path d="M34.7711 1.85547C44.8434 6.26511 49.3976 18 44.9157 28.0723C39.012 30.6747 32.241 30.241 26.6988 27.0121C35.4699 21.8555 38.8916 11.0603 34.7711 1.85547Z" fill="url(#paint2_linear)"/>
<path d="M26.6988 0.0964355C29.494 0.0964355 32.241 0.650655 34.7711 1.83138C37.3976 7.75909 36.9639 14.4579 33.7349 20.0001C28.6265 11.3013 17.8313 7.80728 8.55421 11.9278C11.7108 4.69885 18.8675 0.0964355 26.6988 0.0964355Z" fill="url(#paint3_linear)"/>
<path d="M69.6367 23.6875C69.6367 22.8359 69.4062 22.1836 68.9453 21.7305C68.4844 21.2773 67.6523 20.8359 66.4492 20.4062C65.2461 19.9766 64.3242 19.5273 63.6836 19.0586C63.0508 18.582 62.5742 18.043 62.2539 17.4414C61.9414 16.832 61.7852 16.1367 61.7852 15.3555C61.7852 14.0039 62.2344 12.8906 63.1328 12.0156C64.0391 11.1406 65.2227 10.7031 66.6836 10.7031C67.6836 10.7031 68.5742 10.9297 69.3555 11.3828C70.1367 11.8281 70.7383 12.4492 71.1602 13.2461C71.582 14.043 71.793 14.918 71.793 15.8711H69.6367C69.6367 14.8164 69.3828 14 68.875 13.4219C68.3672 12.8438 67.6367 12.5547 66.6836 12.5547C65.8164 12.5547 65.1445 12.7969 64.668 13.2812C64.1914 13.7656 63.9531 14.4453 63.9531 15.3203C63.9531 16.0391 64.2109 16.6406 64.7266 17.125C65.2422 17.6094 66.0391 18.043 67.1172 18.4258C68.7969 18.9805 69.9961 19.6641 70.7148 20.4766C71.4414 21.2891 71.8047 22.3516 71.8047 23.6641C71.8047 25.0469 71.3555 26.1562 70.457 26.9922C69.5586 27.8203 68.3359 28.2344 66.7891 28.2344C65.7969 28.2344 64.8789 28.0195 64.0352 27.5898C63.1992 27.1523 62.5391 26.543 62.0547 25.7617C61.5781 24.9727 61.3398 24.0703 61.3398 23.0547H63.4961C63.4961 24.1094 63.7891 24.9297 64.375 25.5156C64.9688 26.1016 65.7734 26.3945 66.7891 26.3945C67.7344 26.3945 68.4453 26.1523 68.9219 25.668C69.3984 25.1836 69.6367 24.5234 69.6367 23.6875ZM78.4492 20.1367L76.7734 22.1641V28H74.6289V10.9375H76.7734V19.1758L78.1797 17.3125L82.7734 10.9375H85.3516L79.8086 18.4492L85.7852 28H83.2188L78.4492 20.1367ZM92.1484 19.5039L95.6406 10.9375H98.0664L93.2148 21.6367V28H91.0703V21.6367L86.2188 10.9375H88.6562L92.1484 19.5039ZM102.449 26.1602H109.141V28H100.293V10.9375H102.449V26.1602ZM113.945 28H111.801V10.9375H113.945V28ZM128.852 28H126.695L119.863 14.8516V28H117.707V10.9375H119.863L126.719 24.1445V10.9375H128.852V28ZM140.746 20.1133H134.711V26.1602H141.742V28H132.566V10.9375H141.625V12.7891H134.711V18.2734H140.746V20.1133Z" fill="white"/>
<defs>
<linearGradient id="paint0_linear" x1="16.7607" y1="38.2142" x2="16.7606" y2="10.2451" gradientUnits="userSpaceOnUse">
<stop stop-color="#0C55A0"/>
<stop offset="0.18" stop-color="#0B5FA7"/>
<stop offset="0.5" stop-color="#077BB8"/>
<stop offset="0.9" stop-color="#02A8D4"/>
<stop offset="1" stop-color="#00B4DC"/>
</linearGradient>
<linearGradient id="paint1_linear" x1="16.9189" y1="29.9463" x2="44.913" y2="29.9463" gradientUnits="userSpaceOnUse">
<stop stop-color="#29A539"/>
<stop offset="1" stop-color="#FFE00E"/>
</linearGradient>
<linearGradient id="paint2_linear" x1="36.6691" y1="29.78" x2="36.6647" y2="1.81236" gradientUnits="userSpaceOnUse">
<stop stop-color="#004A8E"/>
<stop offset="1" stop-color="#E61574"/>
</linearGradient>
<linearGradient id="paint3_linear" x1="8.5471" y1="10.0503" x2="36.5141" y2="10.0547" gradientUnits="userSpaceOnUse">
<stop stop-color="#EF7A15"/>
<stop offset="1" stop-color="#E51174"/>
</linearGradient>
</defs>
</svg>
